<svg xmlns="http://www.w3.org/2000/svg" aria-hidden="true" width="15" height="15" viewBox="0 0 15 15"><path d="M11.2,3.5V1.8c0-1-0.8-1.8-1.8-1.8h-4c-1,0-1.8,0.8-1.8,1.8v1.8H0v9.8c0,1,0.8,1.8,1.8,1.8h11.5c1,0,1.8-0.8,1.8-1.8V3.5H11.2zM5.2,1.8c0-0.1,0.1-0.2,0.2-0.2h4c0.1,0,0.2,0.1,0.2,0.2v1.8H5.2V1.8z M13.5,13.2c0,0.1-0.1,0.2-0.2,0.2H1.8c-0.1,0-0.2-0.1-0.2-0.2V5h12V13.2zM5.5,8c0.4,0,0.8-0.3,0.8-0.8S5.9,6.5,5.5,6.5S4.8,6.8,4.8,7.2C4.8,7.7,5.1,8,5.5,8zM9.5,8c0.4,0,0.8-0.3,0.8-0.8S9.9,6.5,9.5,6.5S8.8,6.8,8.8,7.2C8.8,7.7,9.1,8,9.5,8z"/></svg>